# xmcd
#
# Track frame offsets:
#	150
#	11967
#	27137
#	47200
#	68777
#	89869
#	108281
#	122748
#	143875
#	159963
#
# Disc length: 2324 seconds
#
# Revision: 1
# Processed by: cddbd v1.5.2PL0 Copyright (c) Steve Scherf et al.
# Submitted via: audiograbber 1.83.01
#
DISCID=8709120a
DTITLE=Parsons Thibaud - Parsons Thibaud
DYEAR=2007
DGENRE=Singer/Songwriter
TTITLE0=Tell Me Hello
TTITLE1=Dirty World
TTITLE2=First Sight
TTITLE3=The Right One
TTITLE4=Another Way Around
TTITLE5=Unbroken
TTITLE6=Skipping Stone
TTITLE7=My Daddy's Cadillac
TTITLE8=Good Or Bad
TTITLE9=Johanna's Dreams
EXTD=
EXTT0=
EXTT1=
EXTT2=
EXTT3=
EXTT4=
EXTT5=
EXTT6=
EXTT7=
EXTT8=
EXTT9=
PLAYORDER=
